<?xml version="1.0" encoding="utf-8"?>
<!-- Generator: Adobe Illustrator 24.0.2, SVG Export Plug-In . SVG Version: 6.00 Build 0)  -->
<svg version="1.1" id="Слой_1" xmlns="http://www.w3.org/2000/svg" xmlns:xlink="http://www.w3.org/1999/xlink" x="0px" y="0px"
	 viewBox="0 0 155 185" style="enable-background:new 0 0 155 185;" xml:space="preserve">
<style type="text/css">
	.st0{fill:url(#pattern_1_);}
</style>
<linearGradient id="pattern_1_" gradientUnits="userSpaceOnUse" x1="-963.2419" y1="12.1622" x2="-963.2419" y2="13.1622" gradientTransform="matrix(155 0 0 185 149380 -2250)">
	<stop  offset="0" style="stop-color:#181818;stop-opacity:0"/>
	<stop  offset="1" style="stop-color:#F0542C"/>
</linearGradient>
<path id="pattern" class="st0" d="M150,182.5c0-1.4,1.1-2.5,2.5-2.5s2.5,1.1,2.5,2.5s-1.1,2.5-2.5,2.5S150,183.9,150,182.5z
	 M135,182.5c0-1.4,1.1-2.5,2.5-2.5s2.5,1.1,2.5,2.5s-1.1,2.5-2.5,2.5S135,183.9,135,182.5z M120,182.5c0-1.4,1.1-2.5,2.5-2.5
	s2.5,1.1,2.5,2.5s-1.1,2.5-2.5,2.5S120,183.9,120,182.5z M105,182.5c0-1.4,1.1-2.5,2.5-2.5s2.5,1.1,2.5,2.5s-1.1,2.5-2.5,2.5
	S105,183.9,105,182.5z M90,182.5c0-1.4,1.1-2.5,2.5-2.5s2.5,1.1,2.5,2.5s-1.1,2.5-2.5,2.5S90,183.9,90,182.5z M75,182.5
	c0-1.4,1.1-2.5,2.5-2.5s2.5,1.1,2.5,2.5s-1.1,2.5-2.5,2.5S75,183.9,75,182.5z M60,182.5c0-1.4,1.1-2.5,2.5-2.5s2.5,1.1,2.5,2.5
	s-1.1,2.5-2.5,2.5S60,183.9,60,182.5z M45,182.5c0-1.4,1.1-2.5,2.5-2.5s2.5,1.1,2.5,2.5s-1.1,2.5-2.5,2.5S45,183.9,45,182.5z
	 M30,182.5c0-1.4,1.1-2.5,2.5-2.5c1.4,0,2.5,1.1,2.5,2.5s-1.1,2.5-2.5,2.5S30,183.9,30,182.5z M15,182.5c0-1.4,1.1-2.5,2.5-2.5
	s2.5,1.1,2.5,2.5s-1.1,2.5-2.5,2.5S15,183.9,15,182.5z M0,182.5c0-1.4,1.1-2.5,2.5-2.5s2.5,1.1,2.5,2.5S3.9,185,2.5,185
	S0,183.9,0,182.5z M150,167.5c0-1.4,1.1-2.5,2.5-2.5s2.5,1.1,2.5,2.5s-1.1,2.5-2.5,2.5S150,168.9,150,167.5z M135,167.5
	c0-1.4,1.1-2.5,2.5-2.5s2.5,1.1,2.5,2.5s-1.1,2.5-2.5,2.5S135,168.9,135,167.5z M120,167.5c0-1.4,1.1-2.5,2.5-2.5s2.5,1.1,2.5,2.5
	s-1.1,2.5-2.5,2.5S120,168.9,120,167.5z M105,167.5c0-1.4,1.1-2.5,2.5-2.5s2.5,1.1,2.5,2.5s-1.1,2.5-2.5,2.5S105,168.9,105,167.5z
	 M90,167.5c0-1.4,1.1-2.5,2.5-2.5s2.5,1.1,2.5,2.5s-1.1,2.5-2.5,2.5S90,168.9,90,167.5z M75,167.5c0-1.4,1.1-2.5,2.5-2.5
	s2.5,1.1,2.5,2.5s-1.1,2.5-2.5,2.5S75,168.9,75,167.5z M60,167.5c0-1.4,1.1-2.5,2.5-2.5s2.5,1.1,2.5,2.5s-1.1,2.5-2.5,2.5
	S60,168.9,60,167.5z M45,167.5c0-1.4,1.1-2.5,2.5-2.5s2.5,1.1,2.5,2.5s-1.1,2.5-2.5,2.5S45,168.9,45,167.5z M30,167.5
	c0-1.4,1.1-2.5,2.5-2.5c1.4,0,2.5,1.1,2.5,2.5s-1.1,2.5-2.5,2.5S30,168.9,30,167.5z M15,167.5c0-1.4,1.1-2.5,2.5-2.5
	s2.5,1.1,2.5,2.5s-1.1,2.5-2.5,2.5S15,168.9,15,167.5z M0,167.5c0-1.4,1.1-2.5,2.5-2.5s2.5,1.1,2.5,2.5S3.9,170,2.5,170
	S0,168.9,0,167.5z M150,152.5c0-1.4,1.1-2.5,2.5-2.5s2.5,1.1,2.5,2.5s-1.1,2.5-2.5,2.5S150,153.9,150,152.5z M135,152.5
	c0-1.4,1.1-2.5,2.5-2.5s2.5,1.1,2.5,2.5s-1.1,2.5-2.5,2.5S135,153.9,135,152.5z M120,152.5c0-1.4,1.1-2.5,2.5-2.5s2.5,1.1,2.5,2.5
	s-1.1,2.5-2.5,2.5S120,153.9,120,152.5z M105,152.5c0-1.4,1.1-2.5,2.5-2.5s2.5,1.1,2.5,2.5s-1.1,2.5-2.5,2.5S105,153.9,105,152.5z
	 M90,152.5c0-1.4,1.1-2.5,2.5-2.5s2.5,1.1,2.5,2.5s-1.1,2.5-2.5,2.5S90,153.9,90,152.5z M75,152.5c0-1.4,1.1-2.5,2.5-2.5
	s2.5,1.1,2.5,2.5s-1.1,2.5-2.5,2.5S75,153.9,75,152.5z M60,152.5c0-1.4,1.1-2.5,2.5-2.5s2.5,1.1,2.5,2.5s-1.1,2.5-2.5,2.5
	S60,153.9,60,152.5z M45,152.5c0-1.4,1.1-2.5,2.5-2.5s2.5,1.1,2.5,2.5s-1.1,2.5-2.5,2.5S45,153.9,45,152.5z M30,152.5
	c0-1.4,1.1-2.5,2.5-2.5c1.4,0,2.5,1.1,2.5,2.5s-1.1,2.5-2.5,2.5S30,153.9,30,152.5z M15,152.5c0-1.4,1.1-2.5,2.5-2.5
	s2.5,1.1,2.5,2.5s-1.1,2.5-2.5,2.5S15,153.9,15,152.5z M0,152.5c0-1.4,1.1-2.5,2.5-2.5s2.5,1.1,2.5,2.5S3.9,155,2.5,155
	S0,153.9,0,152.5z M150,137.5c0-1.4,1.1-2.5,2.5-2.5s2.5,1.1,2.5,2.5s-1.1,2.5-2.5,2.5S150,138.9,150,137.5z M135,137.5
	c0-1.4,1.1-2.5,2.5-2.5s2.5,1.1,2.5,2.5s-1.1,2.5-2.5,2.5S135,138.9,135,137.5z M120,137.5c0-1.4,1.1-2.5,2.5-2.5s2.5,1.1,2.5,2.5
	s-1.1,2.5-2.5,2.5S120,138.9,120,137.5z M105,137.5c0-1.4,1.1-2.5,2.5-2.5s2.5,1.1,2.5,2.5s-1.1,2.5-2.5,2.5S105,138.9,105,137.5z
	 M90,137.5c0-1.4,1.1-2.5,2.5-2.5s2.5,1.1,2.5,2.5s-1.1,2.5-2.5,2.5S90,138.9,90,137.5z M75,137.5c0-1.4,1.1-2.5,2.5-2.5
	s2.5,1.1,2.5,2.5s-1.1,2.5-2.5,2.5S75,138.9,75,137.5z M60,137.5c0-1.4,1.1-2.5,2.5-2.5s2.5,1.1,2.5,2.5s-1.1,2.5-2.5,2.5
	S60,138.9,60,137.5z M45,137.5c0-1.4,1.1-2.5,2.5-2.5s2.5,1.1,2.5,2.5s-1.1,2.5-2.5,2.5S45,138.9,45,137.5z M30,137.5
	c0-1.4,1.1-2.5,2.5-2.5c1.4,0,2.5,1.1,2.5,2.5s-1.1,2.5-2.5,2.5S30,138.9,30,137.5z M15,137.5c0-1.4,1.1-2.5,2.5-2.5
	s2.5,1.1,2.5,2.5s-1.1,2.5-2.5,2.5S15,138.9,15,137.5z M0,137.5c0-1.4,1.1-2.5,2.5-2.5s2.5,1.1,2.5,2.5S3.9,140,2.5,140
	S0,138.9,0,137.5z M150,122.5c0-1.4,1.1-2.5,2.5-2.5s2.5,1.1,2.5,2.5s-1.1,2.5-2.5,2.5S150,123.9,150,122.5z M135,122.5
	c0-1.4,1.1-2.5,2.5-2.5s2.5,1.1,2.5,2.5s-1.1,2.5-2.5,2.5S135,123.9,135,122.5z M120,122.5c0-1.4,1.1-2.5,2.5-2.5s2.5,1.1,2.5,2.5
	s-1.1,2.5-2.5,2.5S120,123.9,120,122.5z M105,122.5c0-1.4,1.1-2.5,2.5-2.5s2.5,1.1,2.5,2.5s-1.1,2.5-2.5,2.5S105,123.9,105,122.5z
	 M90,122.5c0-1.4,1.1-2.5,2.5-2.5s2.5,1.1,2.5,2.5s-1.1,2.5-2.5,2.5S90,123.9,90,122.5z M75,122.5c0-1.4,1.1-2.5,2.5-2.5
	s2.5,1.1,2.5,2.5s-1.1,2.5-2.5,2.5S75,123.9,75,122.5z M60,122.5c0-1.4,1.1-2.5,2.5-2.5s2.5,1.1,2.5,2.5s-1.1,2.5-2.5,2.5
	S60,123.9,60,122.5z M45,122.5c0-1.4,1.1-2.5,2.5-2.5s2.5,1.1,2.5,2.5s-1.1,2.5-2.5,2.5S45,123.9,45,122.5z M30,122.5
	c0-1.4,1.1-2.5,2.5-2.5c1.4,0,2.5,1.1,2.5,2.5s-1.1,2.5-2.5,2.5S30,123.9,30,122.5z M15,122.5c0-1.4,1.1-2.5,2.5-2.5
	s2.5,1.1,2.5,2.5s-1.1,2.5-2.5,2.5S15,123.9,15,122.5z M0,122.5c0-1.4,1.1-2.5,2.5-2.5s2.5,1.1,2.5,2.5S3.9,125,2.5,125
	S0,123.9,0,122.5z M150,107.5c0-1.4,1.1-2.5,2.5-2.5s2.5,1.1,2.5,2.5s-1.1,2.5-2.5,2.5S150,108.9,150,107.5z M135,107.5
	c0-1.4,1.1-2.5,2.5-2.5s2.5,1.1,2.5,2.5s-1.1,2.5-2.5,2.5S135,108.9,135,107.5z M120,107.5c0-1.4,1.1-2.5,2.5-2.5s2.5,1.1,2.5,2.5
	s-1.1,2.5-2.5,2.5S120,108.9,120,107.5z M105,107.5c0-1.4,1.1-2.5,2.5-2.5s2.5,1.1,2.5,2.5s-1.1,2.5-2.5,2.5S105,108.9,105,107.5z
	 M90,107.5c0-1.4,1.1-2.5,2.5-2.5s2.5,1.1,2.5,2.5s-1.1,2.5-2.5,2.5S90,108.9,90,107.5z M75,107.5c0-1.4,1.1-2.5,2.5-2.5
	s2.5,1.1,2.5,2.5s-1.1,2.5-2.5,2.5S75,108.9,75,107.5z M60,107.5c0-1.4,1.1-2.5,2.5-2.5s2.5,1.1,2.5,2.5s-1.1,2.5-2.5,2.5
	S60,108.9,60,107.5z M45,107.5c0-1.4,1.1-2.5,2.5-2.5s2.5,1.1,2.5,2.5s-1.1,2.5-2.5,2.5S45,108.9,45,107.5z M30,107.5
	c0-1.4,1.1-2.5,2.5-2.5c1.4,0,2.5,1.1,2.5,2.5s-1.1,2.5-2.5,2.5S30,108.9,30,107.5z M15,107.5c0-1.4,1.1-2.5,2.5-2.5
	s2.5,1.1,2.5,2.5s-1.1,2.5-2.5,2.5S15,108.9,15,107.5z M0,107.5c0-1.4,1.1-2.5,2.5-2.5s2.5,1.1,2.5,2.5S3.9,110,2.5,110
	S0,108.9,0,107.5z M150,92.5c0-1.4,1.1-2.5,2.5-2.5s2.5,1.1,2.5,2.5s-1.1,2.5-2.5,2.5S150,93.9,150,92.5z M135,92.5
	c0-1.4,1.1-2.5,2.5-2.5s2.5,1.1,2.5,2.5s-1.1,2.5-2.5,2.5S135,93.9,135,92.5z M120,92.5c0-1.4,1.1-2.5,2.5-2.5s2.5,1.1,2.5,2.5
	s-1.1,2.5-2.5,2.5S120,93.9,120,92.5z M105,92.5c0-1.4,1.1-2.5,2.5-2.5s2.5,1.1,2.5,2.5s-1.1,2.5-2.5,2.5S105,93.9,105,92.5z
	 M90,92.5c0-1.4,1.1-2.5,2.5-2.5s2.5,1.1,2.5,2.5S93.9,95,92.5,95S90,93.9,90,92.5z M75,92.5c0-1.4,1.1-2.5,2.5-2.5s2.5,1.1,2.5,2.5
	S78.9,95,77.5,95S75,93.9,75,92.5z M60,92.5c0-1.4,1.1-2.5,2.5-2.5s2.5,1.1,2.5,2.5S63.9,95,62.5,95S60,93.9,60,92.5z M45,92.5
	c0-1.4,1.1-2.5,2.5-2.5s2.5,1.1,2.5,2.5S48.9,95,47.5,95S45,93.9,45,92.5z M30,92.5c0-1.4,1.1-2.5,2.5-2.5c1.4,0,2.5,1.1,2.5,2.5
	S33.9,95,32.5,95S30,93.9,30,92.5z M15,92.5c0-1.4,1.1-2.5,2.5-2.5s2.5,1.1,2.5,2.5S18.9,95,17.5,95S15,93.9,15,92.5z M0,92.5
	C0,91.1,1.1,90,2.5,90S5,91.1,5,92.5S3.9,95,2.5,95S0,93.9,0,92.5z M150,77.5c0-1.4,1.1-2.5,2.5-2.5s2.5,1.1,2.5,2.5
	s-1.1,2.5-2.5,2.5S150,78.9,150,77.5z M135,77.5c0-1.4,1.1-2.5,2.5-2.5s2.5,1.1,2.5,2.5s-1.1,2.5-2.5,2.5S135,78.9,135,77.5z
	 M120,77.5c0-1.4,1.1-2.5,2.5-2.5s2.5,1.1,2.5,2.5s-1.1,2.5-2.5,2.5S120,78.9,120,77.5z M105,77.5c0-1.4,1.1-2.5,2.5-2.5
	s2.5,1.1,2.5,2.5s-1.1,2.5-2.5,2.5S105,78.9,105,77.5z M90,77.5c0-1.4,1.1-2.5,2.5-2.5s2.5,1.1,2.5,2.5S93.9,80,92.5,80
	S90,78.9,90,77.5z M75,77.5c0-1.4,1.1-2.5,2.5-2.5s2.5,1.1,2.5,2.5S78.9,80,77.5,80S75,78.9,75,77.5z M60,77.5
	c0-1.4,1.1-2.5,2.5-2.5s2.5,1.1,2.5,2.5S63.9,80,62.5,80S60,78.9,60,77.5z M45,77.5c0-1.4,1.1-2.5,2.5-2.5s2.5,1.1,2.5,2.5
	S48.9,80,47.5,80S45,78.9,45,77.5z M30,77.5c0-1.4,1.1-2.5,2.5-2.5c1.4,0,2.5,1.1,2.5,2.5S33.9,80,32.5,80S30,78.9,30,77.5z
	 M15,77.5c0-1.4,1.1-2.5,2.5-2.5s2.5,1.1,2.5,2.5S18.9,80,17.5,80S15,78.9,15,77.5z M0,77.5C0,76.1,1.1,75,2.5,75S5,76.1,5,77.5
	S3.9,80,2.5,80S0,78.9,0,77.5z M150,62.5c0-1.4,1.1-2.5,2.5-2.5s2.5,1.1,2.5,2.5s-1.1,2.5-2.5,2.5S150,63.9,150,62.5z M135,62.5
	c0-1.4,1.1-2.5,2.5-2.5s2.5,1.1,2.5,2.5s-1.1,2.5-2.5,2.5S135,63.9,135,62.5z M120,62.5c0-1.4,1.1-2.5,2.5-2.5s2.5,1.1,2.5,2.5
	s-1.1,2.5-2.5,2.5S120,63.9,120,62.5z M105,62.5c0-1.4,1.1-2.5,2.5-2.5s2.5,1.1,2.5,2.5s-1.1,2.5-2.5,2.5S105,63.9,105,62.5z
	 M90,62.5c0-1.4,1.1-2.5,2.5-2.5s2.5,1.1,2.5,2.5S93.9,65,92.5,65S90,63.9,90,62.5z M75,62.5c0-1.4,1.1-2.5,2.5-2.5s2.5,1.1,2.5,2.5
	S78.9,65,77.5,65S75,63.9,75,62.5z M60,62.5c0-1.4,1.1-2.5,2.5-2.5s2.5,1.1,2.5,2.5S63.9,65,62.5,65S60,63.9,60,62.5z M45,62.5
	c0-1.4,1.1-2.5,2.5-2.5s2.5,1.1,2.5,2.5S48.9,65,47.5,65S45,63.9,45,62.5z M30,62.5c0-1.4,1.1-2.5,2.5-2.5c1.4,0,2.5,1.1,2.5,2.5
	S33.9,65,32.5,65S30,63.9,30,62.5z M15,62.5c0-1.4,1.1-2.5,2.5-2.5s2.5,1.1,2.5,2.5S18.9,65,17.5,65S15,63.9,15,62.5z M0,62.5
	C0,61.1,1.1,60,2.5,60S5,61.1,5,62.5S3.9,65,2.5,65S0,63.9,0,62.5z M150,47.5c0-1.4,1.1-2.5,2.5-2.5s2.5,1.1,2.5,2.5
	s-1.1,2.5-2.5,2.5S150,48.9,150,47.5z M135,47.5c0-1.4,1.1-2.5,2.5-2.5s2.5,1.1,2.5,2.5s-1.1,2.5-2.5,2.5S135,48.9,135,47.5z
	 M120,47.5c0-1.4,1.1-2.5,2.5-2.5s2.5,1.1,2.5,2.5s-1.1,2.5-2.5,2.5S120,48.9,120,47.5z M105,47.5c0-1.4,1.1-2.5,2.5-2.5
	s2.5,1.1,2.5,2.5s-1.1,2.5-2.5,2.5S105,48.9,105,47.5z M90,47.5c0-1.4,1.1-2.5,2.5-2.5s2.5,1.1,2.5,2.5S93.9,50,92.5,50
	S90,48.9,90,47.5z M75,47.5c0-1.4,1.1-2.5,2.5-2.5s2.5,1.1,2.5,2.5S78.9,50,77.5,50S75,48.9,75,47.5z M60,47.5
	c0-1.4,1.1-2.5,2.5-2.5s2.5,1.1,2.5,2.5S63.9,50,62.5,50S60,48.9,60,47.5z M45,47.5c0-1.4,1.1-2.5,2.5-2.5s2.5,1.1,2.5,2.5
	S48.9,50,47.5,50S45,48.9,45,47.5z M30,47.5c0-1.4,1.1-2.5,2.5-2.5c1.4,0,2.5,1.1,2.5,2.5S33.9,50,32.5,50S30,48.9,30,47.5z
	 M15,47.5c0-1.4,1.1-2.5,2.5-2.5s2.5,1.1,2.5,2.5S18.9,50,17.5,50S15,48.9,15,47.5z M0,47.5C0,46.1,1.1,45,2.5,45S5,46.1,5,47.5
	S3.9,50,2.5,50S0,48.9,0,47.5z M150,32.5c0-1.4,1.1-2.5,2.5-2.5s2.5,1.1,2.5,2.5c0,1.4-1.1,2.5-2.5,2.5S150,33.9,150,32.5z
	 M135,32.5c0-1.4,1.1-2.5,2.5-2.5s2.5,1.1,2.5,2.5c0,1.4-1.1,2.5-2.5,2.5S135,33.9,135,32.5z M120,32.5c0-1.4,1.1-2.5,2.5-2.5
	s2.5,1.1,2.5,2.5c0,1.4-1.1,2.5-2.5,2.5S120,33.9,120,32.5z M105,32.5c0-1.4,1.1-2.5,2.5-2.5s2.5,1.1,2.5,2.5c0,1.4-1.1,2.5-2.5,2.5
	S105,33.9,105,32.5z M90,32.5c0-1.4,1.1-2.5,2.5-2.5s2.5,1.1,2.5,2.5c0,1.4-1.1,2.5-2.5,2.5S90,33.9,90,32.5z M75,32.5
	c0-1.4,1.1-2.5,2.5-2.5s2.5,1.1,2.5,2.5c0,1.4-1.1,2.5-2.5,2.5S75,33.9,75,32.5z M60,32.5c0-1.4,1.1-2.5,2.5-2.5s2.5,1.1,2.5,2.5
	c0,1.4-1.1,2.5-2.5,2.5S60,33.9,60,32.5z M45,32.5c0-1.4,1.1-2.5,2.5-2.5s2.5,1.1,2.5,2.5c0,1.4-1.1,2.5-2.5,2.5S45,33.9,45,32.5z
	 M30,32.5c0-1.4,1.1-2.5,2.5-2.5c1.4,0,2.5,1.1,2.5,2.5c0,1.4-1.1,2.5-2.5,2.5S30,33.9,30,32.5z M15,32.5c0-1.4,1.1-2.5,2.5-2.5
	s2.5,1.1,2.5,2.5c0,1.4-1.1,2.5-2.5,2.5S15,33.9,15,32.5z M0,32.5C0,31.1,1.1,30,2.5,30S5,31.1,5,32.5C5,33.9,3.9,35,2.5,35
	S0,33.9,0,32.5z M150,17.5c0-1.4,1.1-2.5,2.5-2.5s2.5,1.1,2.5,2.5s-1.1,2.5-2.5,2.5S150,18.9,150,17.5z M135,17.5
	c0-1.4,1.1-2.5,2.5-2.5s2.5,1.1,2.5,2.5s-1.1,2.5-2.5,2.5S135,18.9,135,17.5z M120,17.5c0-1.4,1.1-2.5,2.5-2.5s2.5,1.1,2.5,2.5
	s-1.1,2.5-2.5,2.5S120,18.9,120,17.5z M105,17.5c0-1.4,1.1-2.5,2.5-2.5s2.5,1.1,2.5,2.5s-1.1,2.5-2.5,2.5S105,18.9,105,17.5z
	 M90,17.5c0-1.4,1.1-2.5,2.5-2.5s2.5,1.1,2.5,2.5S93.9,20,92.5,20S90,18.9,90,17.5z M75,17.5c0-1.4,1.1-2.5,2.5-2.5s2.5,1.1,2.5,2.5
	S78.9,20,77.5,20S75,18.9,75,17.5z M60,17.5c0-1.4,1.1-2.5,2.5-2.5s2.5,1.1,2.5,2.5S63.9,20,62.5,20S60,18.9,60,17.5z M45,17.5
	c0-1.4,1.1-2.5,2.5-2.5s2.5,1.1,2.5,2.5S48.9,20,47.5,20S45,18.9,45,17.5z M30,17.5c0-1.4,1.1-2.5,2.5-2.5c1.4,0,2.5,1.1,2.5,2.5
	S33.9,20,32.5,20S30,18.9,30,17.5z M15,17.5c0-1.4,1.1-2.5,2.5-2.5s2.5,1.1,2.5,2.5S18.9,20,17.5,20S15,18.9,15,17.5z M0,17.5
	C0,16.1,1.1,15,2.5,15S5,16.1,5,17.5S3.9,20,2.5,20S0,18.9,0,17.5z M150,2.5c0-1.4,1.1-2.5,2.5-2.5s2.5,1.1,2.5,2.5S153.9,5,152.5,5
	S150,3.9,150,2.5z M135,2.5c0-1.4,1.1-2.5,2.5-2.5s2.5,1.1,2.5,2.5S138.9,5,137.5,5S135,3.9,135,2.5z M120,2.5
	c0-1.4,1.1-2.5,2.5-2.5s2.5,1.1,2.5,2.5S123.9,5,122.5,5S120,3.9,120,2.5z M105,2.5c0-1.4,1.1-2.5,2.5-2.5s2.5,1.1,2.5,2.5
	S108.9,5,107.5,5S105,3.9,105,2.5z M90,2.5C90,1.1,91.1,0,92.5,0S95,1.1,95,2.5S93.9,5,92.5,5S90,3.9,90,2.5z M75,2.5
	C75,1.1,76.1,0,77.5,0S80,1.1,80,2.5S78.9,5,77.5,5S75,3.9,75,2.5z M60,2.5C60,1.1,61.1,0,62.5,0S65,1.1,65,2.5S63.9,5,62.5,5
	S60,3.9,60,2.5z M45,2.5C45,1.1,46.1,0,47.5,0S50,1.1,50,2.5S48.9,5,47.5,5S45,3.9,45,2.5z M30,2.5C30,1.1,31.1,0,32.5,0
	C33.9,0,35,1.1,35,2.5S33.9,5,32.5,5S30,3.9,30,2.5z M15,2.5C15,1.1,16.1,0,17.5,0S20,1.1,20,2.5S18.9,5,17.5,5S15,3.9,15,2.5z
	 M0,2.5C0,1.1,1.1,0,2.5,0S5,1.1,5,2.5S3.9,5,2.5,5S0,3.9,0,2.5z"/>
</svg>
